<svg width="41" height="41" viewBox="0 0 41 41" fill="none" xmlns="http://www.w3.org/2000/svg">
    <path d="M29.0021 6.87397H12.197L12.65 0.828156H29.0022L29.0021 6.87397Z" fill="#7F4AFF" />
    <path
        d="M16.6309 17.7382L9.94281 5.34915C9.11561 3.89893 9.6205 2.05273 11.0704 1.22544C12.5205 0.398797 14.3667 0.90393 15.1941 2.35302L22.9391 16.5947C23.5952 17.7445 20.4952 20.0798 19.5212 19.9121C18.5472 19.7443 17.6269 19.5773 16.6309 17.7382Z"
        fill="#A97DFF" />
    <path
        d="M20.5616 24.2625C17.6366 24.2625 15.2571 21.8829 15.2571 18.958C15.2571 16.0331 17.6366 13.6536 20.5616 13.6536C23.4865 13.6536 25.866 16.0332 25.866 18.958C25.866 21.8829 23.4864 24.2625 20.5616 24.2625ZM20.5616 15.3024C18.5458 15.3024 16.906 16.9423 16.906 18.958C16.906 20.9737 18.5459 22.6136 20.5616 22.6136C22.5773 22.6136 24.2171 20.9737 24.2171 18.958C24.2171 16.9423 22.5773 15.3024 20.5616 15.3024Z"
        fill="#C6C6C6" />
    <path
        d="M29.9058 30.8276C29.9058 35.9882 25.7223 40.1717 20.5617 40.1717C15.401 40.1717 11.2175 35.9882 11.2175 30.8276C11.2175 25.6669 15.401 21.4834 20.5617 21.4834C25.7223 21.4834 29.9058 25.6669 29.9058 30.8276Z"
        fill="#FFD60D" />
    <path
        d="M20.2421 34.976L17.436 36.4513C16.9324 36.716 16.3438 36.2884 16.4399 35.7276L16.9758 32.603C16.9947 32.4933 16.9865 32.3807 16.9521 32.2748C16.9177 32.1689 16.8581 32.073 16.7784 31.9954L14.5082 29.7825C14.1008 29.3853 14.3256 28.6933 14.8887 28.6115L18.026 28.1556C18.1361 28.1396 18.2407 28.0971 18.3308 28.0317C18.4209 27.9662 18.4936 27.8799 18.5429 27.78L19.9459 24.9372C20.1978 24.4269 20.9253 24.4269 21.1771 24.9372L22.5802 27.78C22.6295 27.8798 22.7023 27.9662 22.7923 28.0316C22.8824 28.097 22.9869 28.1396 23.0971 28.1556L26.2344 28.6115C26.7975 28.6933 27.0223 29.3853 26.6148 29.7825L24.3447 31.9954C24.265 32.0731 24.2054 32.169 24.171 32.2748C24.1366 32.3807 24.1285 32.4933 24.1472 32.603L24.6831 35.7276C24.7793 36.2884 24.1907 36.7161 23.687 36.4513L20.8809 34.976C20.7824 34.9242 20.6728 34.8972 20.5615 34.8972C20.4502 34.8972 20.3406 34.9242 20.2421 34.976Z"
        fill="#FFE780" />
    <path
        d="M9.10151 24.765C10.9423 24.2987 12.3913 22.8496 12.8576 21.0089C12.9024 20.8318 13.1302 20.8318 13.1751 21.0089C13.6414 22.8496 15.0904 24.2987 16.9311 24.765C17.1082 24.8099 17.1082 25.0377 16.9311 25.0825C15.0904 25.5488 13.6414 26.9978 13.1751 28.8384C13.1302 29.0155 12.9024 29.0155 12.8576 28.8384C12.3913 26.9978 10.9423 25.5488 9.10151 25.0825C8.92446 25.0377 8.92446 24.8099 9.10151 24.765Z"
        fill="#A4ECF4" />
    <path
        d="M31.5854 5.41848L23.8266 18.5583C23.6056 18.9189 23.3092 19.2274 22.9576 19.4626C22.6061 19.6978 22.2078 19.854 21.7901 19.9207H19.8419L19.2455 18.0295L19.2929 18.0229C18.4739 17.4276 17.9497 16.7676 18.2651 16.253L26.3621 2.37103C27.187 1.02467 28.9079 0.425289 30.3265 1.11852C31.9538 1.91378 32.5089 3.91133 31.5854 5.41848Z"
        fill="#A97DFF" />
</svg>